<svg width="51" height="49" viewBox="0 0 51 49" fill="none" xmlns="http://www.w3.org/2000/svg">
<path fill-rule="evenodd" clip-rule="evenodd" d="M29.525 48.8509C28.6424 48.9637 27.8372 48.7865 27.1092 48.3141C26.2653 43.5094 25.9078 38.6778 26.0355 33.8194C26.9304 33.1054 27.8248 33.1054 28.7197 33.8194C29.4681 38.8496 29.7365 43.8583 29.525 48.8509Z" fill="#130A44"/>
<path fill-rule="evenodd" clip-rule="evenodd" d="M9.12024 46.7037C7.20319 46.752 6.57669 45.8609 7.2413 44.0195C10.8473 39.9449 14.5155 35.9186 18.2465 31.9406C20.9189 31.5272 21.5454 32.5096 20.1255 34.8932C16.3187 38.7907 12.6505 42.7257 9.12024 46.7037Z" fill="#130A44"/>
<path fill-rule="evenodd" clip-rule="evenodd" d="M46.7035 42.4087C43.1082 41.072 39.9769 38.9246 37.3088 35.9666C36.8175 34.6674 37.2647 33.9534 38.6509 33.8192C39.4228 33.9373 40.1384 34.2058 40.7982 34.6245C42.5875 36.0579 44.3773 37.4859 46.1666 38.9192C47.3391 39.9392 47.5179 41.0988 46.7035 42.4087Z" fill="#130A44"/>
<path fill-rule="evenodd" clip-rule="evenodd" d="M46.7027 27.3773C44.1908 27.4686 41.6859 27.3773 39.1869 27.1089C38.3865 26.0245 38.5652 25.1279 39.7237 24.4247C43.3066 24.0543 46.8857 23.8717 50.4605 23.8878C51.1762 24.7844 51.1762 25.6755 50.4605 26.5721C49.0991 26.6741 47.8467 26.9425 46.7027 27.3773Z" fill="#130A44"/>
<path fill-rule="evenodd" clip-rule="evenodd" d="M6.44196 27.3773C4.46531 27.4686 2.49725 27.3773 0.53671 27.1089C-0.1789 26.3949 -0.1789 25.6755 0.53671 24.9615C5.24964 24.0006 9.99155 23.1953 14.763 22.5457C16.4691 23.0182 16.9163 24.006 16.1051 25.4984C12.8067 26.105 9.5857 26.7331 6.44196 27.3773Z" fill="#130A44"/>
<path fill-rule="evenodd" clip-rule="evenodd" d="M37.5788 17.7143C35.3365 18.0686 34.5312 17.1721 35.1631 15.0301C38.4738 12.4371 41.7839 9.83881 45.0946 7.24586C47.3316 6.61776 48.1369 7.42302 47.5104 9.66165C44.0988 12.2707 40.7881 14.9549 37.5788 17.7143Z" fill="#130A44"/>
<path fill-rule="evenodd" clip-rule="evenodd" d="M20.9346 16.6405C19.964 16.6459 19.0691 16.3775 18.2504 15.8353C15.6816 13.7846 13.2658 11.5513 11.003 9.12477C10.3298 7.18678 10.9558 6.38152 12.882 6.70899C15.6558 9.12477 18.4292 11.5406 21.203 13.9563C21.5466 14.9065 21.4569 15.7977 20.9346 16.6405Z" fill="#130A44"/>
<path fill-rule="evenodd" clip-rule="evenodd" d="M29.5211 14.4934C28.8114 14.5846 28.1849 14.4075 27.6422 13.9565C27.2841 9.48463 27.2841 5.00738 27.6422 0.535491C28.5371 -0.178508 29.4314 -0.178508 30.3264 0.535491C30.6844 4.83022 30.6844 9.12495 30.3264 13.4197C29.9414 13.7096 29.673 14.0693 29.5211 14.4934Z" fill="#130A44"/>
</svg>
