<svg width="190" height="223" viewBox="0 0 190 223" fill="none" xmlns="http://www.w3.org/2000/svg">
<g clip-path="url(#clip0_3_238)">
<path d="M11.1386 44.6488C14.4184 43.1127 17.3648 41.0385 20.6872 39.9726C25.4908 38.4852 30.5168 37.3566 35.6278 37.1684C67.1242 35.7729 96.1739 44.0865 119.265 65.2791C142.69 87.0098 152.275 115.331 146.354 147.551C143.45 163.751 137.01 178.666 128.2 192.567C126.529 195.093 125.037 197.506 122.483 201.82C129.144 200.92 134.213 200.261 139.461 199.491C139.615 200.141 139.948 200.679 140.213 201.508C139.065 202.468 138.14 203.786 136.77 204.387C130.141 207.75 123.401 210.934 116.662 214.117C112.192 216.143 107.653 218.459 103.075 215.089C98.2064 211.652 98.4585 206.033 99.6263 201.089C101.386 194.288 103.908 187.512 106.54 180.915C107.175 179.529 109.598 179.02 111.217 178.017C112.217 179.631 113.979 181.27 113.927 182.792C113.59 187.47 112.38 191.944 111.392 196.777C112.043 196.622 112.625 196.758 112.693 196.467C143.591 157.954 149.365 114.652 119.882 76.317C118.48 74.4553 116.897 72.7051 114.955 71.1778C89.1334 49.1946 59.4853 39.5139 25.5559 43.4103C21.1381 43.9137 16.7367 45.6484 12.2927 46.9128C11.848 46.1953 11.5832 45.3663 11.1386 44.6488Z" fill="white"/>
</g>
<defs>
<clipPath id="clip0_3_238">
<rect width="202" height="97" fill="white" transform="translate(83.0208 0.100952) rotate(58.2121)"/>
</clipPath>
</defs>
</svg>
